<svg width="190" height="30" viewBox="0 0 190 30" fill="none" xmlns="http://www.w3.org/2000/svg">
<g clip-path="url(#clip0_3273_11700)">
<path d="M17.1502 0C7.61643 0 0 6.57473 0 14.6865C0 22.7983 7.64642 29.303 17.1087 29.373L17.1018 29.3414C12.824 28.8877 9.08388 25.834 6.95192 22.0354C5.35065 19.1802 4.68384 15.6841 5.75443 12.4453C6.68197 9.64654 8.45398 7.868 10.9297 6.46639C11.6819 6.03981 13.0871 5.43493 13.9154 5.20922C14.9698 4.92258 16.0612 4.79167 17.1502 4.79167V0Z" fill="#00A9E7"/>
<path d="M22.8331 18.4986L26.8386 10.7344L32.4546 18.1103L29.785 18.239C29.785 18.239 31.3471 30.032 16.9541 29.3684C16.9541 29.3684 25.4381 28.443 25.4473 18.406L22.8331 18.4986Z" fill="#005FAE"/>
<path d="M28.7721 6.92889C28.3984 8.48172 26.9055 9.42516 25.4381 9.03921C23.9706 8.651 23.0869 7.08011 23.4607 5.52727C23.8345 3.97443 25.3273 3.031 26.7948 3.41695C28.2622 3.80516 29.1459 5.37605 28.7721 6.92889Z" fill="#005FAE"/>
<path d="M45.6455 3.11926C46.1854 3.11926 46.5753 3.20954 46.8199 3.38559C47.1337 3.58195 47.3068 3.88214 47.3414 4.2884C47.3414 5.12124 47.1683 6.36938 46.8199 8.03281H49.7433C50.4747 8.03281 51.0238 8.16598 51.3884 8.43005C51.7529 8.71444 51.9375 9.20872 51.9375 9.91743C51.9375 12.4498 51.4945 14.9822 50.6062 17.5146C50.2763 18.4874 49.8656 19.4353 49.3787 20.3562C50.1978 20.8866 50.98 21.4193 51.7276 21.9497C52.1267 22.286 52.3275 22.7125 52.3275 23.2249C52.309 23.7553 52.1706 24.1819 51.9098 24.5001C51.6653 24.7664 51.2915 24.8973 50.7862 24.8973C50.3847 24.8973 49.8286 24.6491 49.1157 24.1525C48.6288 23.744 48.1397 23.3829 47.6529 23.0646C46.8176 24.1615 45.8693 25.2246 44.8079 26.2516C43.832 27.0844 43.1098 27.5268 42.6414 27.5809C42.0484 27.5809 41.6239 27.4207 41.3608 27.1025C41.1509 26.8542 41.047 26.554 41.047 26.1996C41.047 25.8453 41.1509 25.509 41.3608 25.2427C42.9436 23.9494 44.2496 22.6651 45.2763 21.3899C44.5103 20.8595 43.7258 20.3449 42.9275 19.8484C42.1084 19.2999 41.7 18.6093 41.7 17.7764C41.7 17.6523 41.7784 17.1467 41.9353 16.2619C42.4406 14.4202 42.8837 12.5965 43.2667 10.7909H41.9861C41.55 10.7909 41.2385 10.6848 41.047 10.4727C40.8555 10.2424 40.7609 9.88809 40.7609 9.4096C40.7609 8.93111 40.874 8.56773 41.1001 8.31946C41.3262 8.12535 41.6215 8.0283 41.9884 8.0283H43.8689C44.1134 6.77113 44.3211 5.523 44.4965 4.28389C44.5126 3.94759 44.6441 3.65643 44.8887 3.40816C45.1333 3.21406 45.3848 3.11475 45.6455 3.11475V3.11926ZM47.0045 18.923C47.0922 18.7988 47.1614 18.6747 47.2145 18.5506C48.2943 16.4425 48.9634 13.9553 49.2241 11.0866C49.1895 10.8925 49.0072 10.7932 48.675 10.7932H46.22C45.8555 12.2286 45.4286 13.8401 44.9418 15.6277C44.7157 16.4064 44.6026 16.921 44.6026 17.167C44.6026 17.5394 44.7595 17.7696 45.0733 17.8577C45.7355 18.2301 46.3792 18.5844 47.0045 18.9207V18.923ZM53.2688 4.39448H62.1451C62.858 4.39448 63.4256 4.60664 63.8433 5.03096C64.2424 5.42143 64.4431 5.91572 64.4431 6.51835C64.4431 7.27896 64.164 8.03281 63.6079 8.77538C62.5627 10.1386 61.1622 11.5651 59.404 13.0524C59.5424 13.3887 59.6739 13.7341 59.7962 14.0884H63.9471C64.4178 14.0884 64.7662 14.1855 64.9923 14.3796C65.2023 14.5579 65.3061 14.91 65.3061 15.4426C65.3061 15.9031 65.2184 16.2484 65.0454 16.4786C64.8008 16.7811 64.4362 16.93 63.9494 16.93H60.7653C61.2867 18.5777 61.5475 20.2501 61.5475 21.9497C61.5129 23.9336 61.1645 25.3758 60.5023 26.2786C59.9808 27.0573 59.1017 27.4907 57.865 27.5809C56.2453 27.5268 54.9324 27.1724 53.9218 26.5179C53.4165 26.1635 53.165 25.7031 53.165 25.1366C53.1996 24.64 53.3473 24.2428 53.608 23.9404C53.7995 23.7462 54.0695 23.6402 54.4179 23.6221C54.6279 23.6221 54.8701 23.6831 55.1493 23.8094C56.1576 24.2518 56.8982 24.473 57.3689 24.473C58.0473 24.473 58.4557 24.2338 58.5964 23.7553C58.7349 23.349 58.8041 22.6742 58.8041 21.7352C58.8041 20.5322 58.4557 18.9297 57.7589 16.9278H53.0843C52.6136 16.9278 52.2652 16.8127 52.0391 16.5824C51.8291 16.3883 51.7253 16.0069 51.7253 15.4404C51.7253 14.9799 51.8291 14.6256 52.0391 14.3773C52.2652 14.1832 52.6136 14.0862 53.0843 14.0862H56.6352C56.4622 13.6438 56.2707 13.2014 56.0607 12.7568C55.7469 11.9059 55.5808 11.2784 55.5646 10.8699C55.5646 10.5336 55.7469 10.2515 56.1138 10.019C56.3745 9.87681 56.6883 9.80684 57.0528 9.80684C57.4174 9.80684 57.775 9.99417 58.0704 10.3643C58.1396 10.4704 58.1926 10.5494 58.2273 10.6036C59.9162 8.97399 60.7768 7.90416 60.8114 7.38956C60.8114 7.24737 60.7422 7.1774 60.6015 7.1774H53.2642C52.7935 7.1774 52.4544 7.04423 52.2467 6.78016C52.0367 6.53189 51.9329 6.20462 51.9329 5.7961C51.9329 5.35372 52.046 5.01742 52.2721 4.7872C52.4982 4.52087 52.8282 4.38771 53.2642 4.38771L53.2688 4.39448Z" fill="#00A9E7"/>
<path d="M85.1559 2.82568C85.6612 2.82568 86.0165 2.91371 86.2264 3.09201C86.4872 3.32223 86.6187 3.6495 86.6187 4.07382V4.73739H95.105C95.8018 4.73739 96.1502 5.12785 96.1502 5.90653C96.1502 6.6852 95.8018 7.07567 95.105 7.07567H77.2464C76.8103 7.07567 76.5934 7.20883 76.5934 7.47516V11.0887C76.5588 17.4287 75.9058 22.5724 74.6345 26.5222C74.5122 26.8405 74.383 27.1068 74.2423 27.319C74.0508 27.6192 73.6839 27.7794 73.1463 27.7975C72.7448 27.7975 72.4149 27.7004 72.1542 27.5063C71.9096 27.2941 71.7896 27.0007 71.7896 26.6283C71.7896 26.38 71.9027 25.8226 72.1288 24.9559C73.0679 21.805 73.617 18.8461 73.7739 16.0835C73.8616 14.3298 73.9054 12.6663 73.9054 11.0887V6.7326C73.9054 5.40321 74.6714 4.73964 76.2035 4.73964H83.723V4.07608C83.723 3.72172 83.8545 3.39445 84.1153 3.09427C84.2883 2.91822 84.6367 2.82794 85.1605 2.82794L85.1559 2.82568ZM77.8463 14.1943H94.895C95.225 14.1943 95.4603 14.2575 95.601 14.3794C95.7579 14.5036 95.8364 14.7609 95.8364 15.1491C95.8364 15.4492 95.7764 15.6795 95.6541 15.8397C95.4811 16.088 95.2273 16.2121 94.8973 16.2121H87.4562V16.9299H92.913C93.9398 16.9299 94.4543 17.4693 94.4543 18.5504V22.6672C94.4543 23.7461 93.9398 24.2878 92.913 24.2878H91.0856C92.0778 24.6602 93.0515 24.9423 94.009 25.1387C94.5305 25.2267 94.9227 25.2989 95.1834 25.3508C95.6887 25.475 95.9402 25.6781 95.9402 25.9625C95.9402 26.459 95.7741 26.8224 95.4441 27.0504C95.1488 27.2625 94.7819 27.3686 94.3482 27.3686C93.7737 27.3325 93.1645 27.2174 92.5208 27.0233C91.3902 26.7231 90.2573 26.2536 89.1267 25.6149C88.7783 25.4185 88.4392 25.1906 88.1092 24.9243C88.04 24.8182 88.0054 24.7031 88.0054 24.5789C88.0054 24.4729 88.0308 24.3758 88.0838 24.2878H84.1937C84.4198 24.518 84.5329 24.7663 84.5329 25.0326C84.5329 25.3508 84.3921 25.5901 84.1153 25.7503C83.4369 26.2469 82.1471 26.7163 80.2505 27.1587C78.9792 27.4408 77.9432 27.583 77.1426 27.583C76.6903 27.565 76.395 27.407 76.2543 27.1045C76.1504 26.9104 76.0974 26.5651 76.0974 26.0686C76.2012 25.5901 76.5842 25.3508 77.2464 25.3508C78.5523 25.2606 79.6829 25.0845 80.6404 24.8204C81.215 24.6782 81.771 24.5022 82.3109 24.29H79.5422C78.497 24.29 77.9755 23.7483 77.9755 22.6695V18.5527C77.9755 17.4715 78.497 16.9321 79.5422 16.9321H84.8697V16.2144H77.8463C77.5325 16.2144 77.2972 16.1264 77.1403 15.9481C77.0018 15.7901 76.9326 15.5237 76.9326 15.1513C76.9326 14.815 77.0018 14.5577 77.1403 14.3817C77.2972 14.2575 77.5325 14.1966 77.8463 14.1966V14.1943ZM78.1855 8.45697H80.3797C80.4143 8.19064 80.5182 7.98751 80.6935 7.84532C80.8158 7.66927 81.0927 7.57899 81.5288 7.57899C81.9118 7.57899 82.2163 7.66701 82.4425 7.84532C82.6524 8.00557 82.7655 8.2087 82.7816 8.45697H89.7797C89.8143 8.19064 89.8835 7.98751 89.9897 7.84532C90.1627 7.66927 90.4673 7.57899 90.9034 7.57899C91.3394 7.57899 91.6694 7.66701 91.8955 7.84532C92.0686 7.98751 92.1562 8.19064 92.1562 8.45697H94.4543C94.7843 8.45697 95.0196 8.52017 95.158 8.64205C95.3149 8.76618 95.3934 9.05734 95.3934 9.52003C95.3934 9.85633 95.3495 10.0956 95.2619 10.2378C95.105 10.468 94.835 10.5831 94.452 10.5831H92.1539V11.9644C92.1539 12.9394 91.6394 13.4247 90.6126 13.4247H81.8149C80.8573 13.4247 80.3797 12.9372 80.3797 11.9644V10.5831H78.1855C77.8901 10.5831 77.6548 10.4951 77.4794 10.3168C77.3225 10.1746 77.2441 9.90824 77.2441 9.52003C77.2441 9.07765 77.3225 8.7865 77.4794 8.64205C77.6179 8.51791 77.8532 8.45697 78.1855 8.45697ZM80.4836 19.7195H84.8697V18.8416H80.9796C80.6497 18.8416 80.4836 19.0289 80.4836 19.399V19.7173V19.7195ZM84.8697 22.3512V21.3943H80.4836V21.8457C80.4836 22.182 80.6497 22.3512 80.9796 22.3512H84.8697ZM82.7816 10.5831V11.0887C82.7816 11.3889 82.9132 11.5401 83.1739 11.5401H89.2583C89.5882 11.5401 89.7543 11.3889 89.7543 11.0887V10.5831H82.7839H82.7816ZM87.4539 18.8438V19.7218H91.944V19.4036C91.944 19.0312 91.7778 18.8461 91.4479 18.8461H87.4539V18.8438ZM91.4502 22.3512C91.7801 22.3512 91.9463 22.182 91.9463 21.8457V21.3943H87.4562V22.3512H91.4502Z" fill="#00A9E7"/>
<path d="M107.984 3.88879C108.384 3.88879 108.716 3.96778 108.977 4.12803C109.272 4.34019 109.42 4.68552 109.42 5.16401C109.366 5.60639 109.203 6.11196 108.923 6.67848C108.889 6.74844 108.854 6.80261 108.82 6.83872H113.833V4.28828C113.833 3.97004 113.946 3.66986 114.173 3.38547C114.364 3.20942 114.694 3.11914 115.165 3.11914C115.67 3.11914 116.018 3.20942 116.21 3.38547C116.489 3.61569 116.628 3.91587 116.628 4.28828V6.83872H124.486C124.938 6.83872 125.243 6.93578 125.4 7.12988C125.626 7.29013 125.739 7.62643 125.739 8.13877C125.739 8.5473 125.661 8.84748 125.504 9.04159C125.312 9.35983 124.973 9.52008 124.486 9.52008H116.628V12.8131H125.845C126.281 12.8131 126.602 12.9011 126.812 13.0794C127.004 13.2397 127.098 13.576 127.098 14.0883C127.098 14.4968 127.02 14.806 126.863 15.0182C126.637 15.3026 126.297 15.4425 125.845 15.4425H104.2C103.799 15.4425 103.487 15.3455 103.261 15.1514C103.051 14.9573 102.948 14.6029 102.948 14.0883C102.948 13.6459 103.051 13.3096 103.261 13.0794C103.487 12.9034 103.801 12.8131 104.2 12.8131H113.836V9.52008H107.387C107.022 10.1227 106.655 10.6441 106.291 11.0865C106.081 11.671 105.638 11.9622 104.959 11.9622C104.576 11.9261 104.219 11.7771 103.889 11.5108C103.697 11.2444 103.603 10.9352 103.603 10.5809C103.603 10.4567 103.681 10.2356 103.838 9.91731C105.126 8.25388 106.162 6.49114 106.946 4.63135C107.103 4.1348 107.451 3.88653 107.991 3.88653L107.984 3.88879ZM107.149 17.5957H123.102C124.424 17.5957 125.086 18.2683 125.086 19.6158V25.0349C125.086 26.362 124.424 27.0279 123.102 27.0279H107.149C105.809 27.0279 105.139 26.3643 105.139 25.0349V19.6158C105.139 18.2706 105.809 17.5957 107.149 17.5957ZM121.743 24.4752C122.107 24.4752 122.292 24.3059 122.292 23.9696V20.6766C122.292 20.3042 122.11 20.1191 121.743 20.1191H108.478C108.148 20.1191 107.982 20.3064 107.982 20.6766V23.9696C107.982 24.3059 108.148 24.4752 108.478 24.4752H121.743Z" fill="#00A9E7"/>
<path d="M136.842 4.39449H139.636V4.07624C139.636 3.79412 139.758 3.51876 140.001 3.25243C140.157 3.09218 140.453 3.01318 140.889 3.01318C141.325 3.01318 141.602 3.09218 141.777 3.25243C142.038 3.46459 142.169 3.73995 142.169 4.07624V4.39449H145.067C146.198 4.39449 146.766 4.97003 146.766 6.12111V7.29025H147.158C147.506 7.29025 147.758 7.35345 147.915 7.47759C148.053 7.60172 148.125 7.85903 148.125 8.24723C148.125 8.54742 148.062 8.77764 147.942 8.93788C147.769 9.18616 147.506 9.31029 147.158 9.31029H146.766V10.5855C146.766 11.7005 146.2 12.258 145.067 12.258H142.169V13.321H145.72C146.556 13.321 147.026 13.6844 147.13 14.4112C148.261 11.0821 149.105 7.5769 149.664 3.89117C149.855 3.43073 150.134 3.17343 150.499 3.12152C150.951 3.12152 151.309 3.19375 151.569 3.33368C151.918 3.51199 152.091 3.83023 152.091 4.29066C152.056 4.69918 152.012 5.08739 151.959 5.4598C151.872 5.99021 151.777 6.53189 151.673 7.08035H156.895C157.4 7.08035 157.739 7.1774 157.912 7.37376C158.122 7.54981 158.226 7.91319 158.226 8.46165C158.226 8.87017 158.157 9.17036 158.016 9.36446C157.806 9.64659 157.458 9.79781 156.971 9.81587C156.641 13.0209 155.909 16.1468 154.777 19.1938C154.567 19.7423 154.341 20.2479 154.098 20.7083C154.811 21.8413 155.533 22.7893 156.265 23.5499C157.065 24.3466 157.552 24.8432 157.728 25.0373C158.127 25.2855 158.328 25.5948 158.328 25.9672C158.328 26.4095 158.187 26.791 157.91 27.1092C157.649 27.4094 157.31 27.5697 156.892 27.5877C156.597 27.5877 156.283 27.4546 155.953 27.1905C154.908 26.4457 153.821 25.1614 152.688 23.3377C151.904 24.6491 151.06 25.737 150.155 26.6059C149.511 27.2085 148.997 27.5358 148.614 27.5877C148.108 27.5877 147.691 27.4117 147.361 27.0573C147.116 26.791 146.987 26.4637 146.969 26.0755C146.969 25.6512 147.169 25.3397 147.569 25.1456C148.96 23.8162 150.171 22.2679 151.198 20.4961C150.536 19.0449 149.927 17.5123 149.371 15.9008C149.336 16.025 149.301 16.131 149.267 16.2191C149.006 16.5554 148.648 16.7246 148.196 16.7246C147.779 16.7246 147.439 16.6095 147.179 16.3793L147.153 16.3522V16.6186C147.153 17.6094 146.673 18.1059 145.718 18.1059H140.444C140.391 18.3723 140.227 18.8056 139.948 19.4082H147.571C147.919 19.4082 148.162 19.4782 148.302 19.6204C148.441 19.7445 148.512 19.9838 148.512 20.3381C148.512 20.6925 148.459 20.9137 148.355 21.0559C148.182 21.2861 147.919 21.4012 147.571 21.4012H145.508C145.455 22.0038 145.282 22.5252 144.987 22.9676C144.657 23.5521 144.202 24.0826 143.63 24.561C144.604 24.9854 145.335 25.3217 145.824 25.5699C146.311 25.764 146.556 26.1184 146.556 26.633C146.521 26.8993 146.426 27.1025 146.27 27.2446C146.06 27.4749 145.808 27.59 145.513 27.59C145.199 27.59 144.92 27.529 144.678 27.4049C143.528 26.9083 142.379 26.4208 141.23 25.9446C140.012 26.4569 138.646 26.8655 137.13 27.1657C136.468 27.3078 135.737 27.3778 134.936 27.3778C134.535 27.3778 134.223 27.2085 133.997 26.8722C133.859 26.6781 133.789 26.4569 133.789 26.2087C133.789 25.8001 134.006 25.518 134.442 25.36C135.852 25.1637 137.061 24.9447 138.072 24.6965C137.497 24.4662 136.923 24.2451 136.348 24.0329C135.984 23.8726 135.799 23.6086 135.799 23.2362C135.799 23.094 135.868 22.8638 136.009 22.5455C136.2 22.155 136.383 21.7759 136.558 21.4035H134.756C134.442 21.4035 134.198 21.3245 134.025 21.1642C133.868 21.022 133.789 20.7489 133.789 20.3404C133.789 20.0222 133.868 19.7829 134.025 19.6227C134.198 19.4805 134.442 19.4105 134.756 19.4105H137.419C137.629 18.9681 137.811 18.5325 137.968 18.1082H136.194C135.236 18.1082 134.758 17.6116 134.758 16.6208V14.8423C134.758 13.8334 135.236 13.3278 136.194 13.3278H139.641V12.2647H136.846C135.716 12.2647 135.148 11.7073 135.148 10.5923V9.31707H134.835C134.539 9.31707 134.304 9.22904 134.128 9.05074C133.972 8.89049 133.893 8.62641 133.893 8.254C133.893 7.91771 133.972 7.66041 134.128 7.48436C134.302 7.36022 134.537 7.29703 134.835 7.29703H135.148V6.12788C135.148 4.9768 135.714 4.40126 136.846 4.40126L136.842 4.39449ZM139.636 16.3206V15.1515H137.338C137.2 15.1515 137.128 15.2215 137.128 15.3636V16.1062C137.128 16.2484 137.197 16.3184 137.338 16.3184H139.636V16.3206ZM137.548 7.288H139.636V6.22494H137.991C137.696 6.22494 137.548 6.3581 137.548 6.62443V7.288ZM139.636 10.4772V9.30804H137.548V10.0258C137.548 10.326 137.696 10.4772 137.991 10.4772H139.636ZM143.055 21.3944H138.93C138.895 21.4305 138.877 21.4576 138.877 21.4734C138.685 21.8977 138.591 22.1912 138.591 22.3514C138.591 22.4936 138.782 22.6426 139.165 22.8028C139.897 23.0691 140.575 23.3264 141.203 23.5725C141.272 23.5364 141.325 23.5025 141.36 23.4664C142.368 22.8299 142.935 22.137 143.058 21.3944H143.055ZM142.169 6.22719V7.29025H144.364V6.62669C144.364 6.36036 144.216 6.22719 143.921 6.22719H142.172H142.169ZM143.918 10.4772C144.214 10.4772 144.361 10.326 144.361 10.0258V9.30804H142.167V10.4772H143.916H143.918ZM144.571 16.3206C144.71 16.3206 144.781 16.2507 144.781 16.1085V15.3659C144.781 15.2237 144.712 15.1537 144.571 15.1537H142.169V16.3229H144.571V16.3206ZM150.497 12.0436C150.584 12.3257 150.688 12.6891 150.81 13.1314C151.297 14.6888 151.881 16.2213 152.559 17.7268C153.551 15.2485 154.17 12.6101 154.412 9.81136H151.096C150.94 10.3598 150.792 10.9105 150.653 11.459C150.6 11.6711 150.55 11.8675 150.497 12.0436Z" fill="#00A9E7"/>
<path d="M166.708 8.24493H168.51V3.99495C168.526 3.28624 168.937 2.92286 169.737 2.9048C170.538 2.9048 170.955 3.26818 170.99 3.99495V8.24493H172.582C172.981 8.24493 173.279 8.33296 173.47 8.51126C173.715 8.67151 173.835 9.04167 173.835 9.62624C173.835 10.0867 173.766 10.3959 173.625 10.5561C173.399 10.8405 173.05 10.9805 172.58 10.9805H170.988V15.6028C171.161 15.4968 171.336 15.3907 171.509 15.2846C171.754 15.0724 171.961 14.9573 172.137 14.9393C172.607 14.9393 172.954 15.0634 173.182 15.3117C173.477 15.5938 173.625 15.9662 173.625 16.4267C173.59 16.763 173.443 17.0812 173.182 17.3836C172.608 17.8802 171.876 18.3745 170.988 18.871V25.4593C170.988 26.1319 170.84 26.6284 170.545 26.9467C170.18 27.283 169.7 27.4951 169.11 27.5832H167.465C166.943 27.529 166.551 27.3349 166.29 26.9986C166.117 26.8045 166.02 26.5382 166.004 26.2019C166.004 25.7234 166.082 25.378 166.239 25.1659C166.396 24.8996 166.701 24.7416 167.153 24.6874H168.092C168.371 24.6693 168.51 24.5723 168.51 24.3962V20.0402C167.813 20.2884 167.213 20.4216 166.708 20.4374C165.769 20.4013 165.279 19.9409 165.245 19.0561C165.245 18.3655 165.566 17.9411 166.212 17.7809C167.065 17.4988 167.831 17.1963 168.51 16.8781V10.9805H166.708C166.343 10.9805 166.046 10.8834 165.819 10.687C165.575 10.4929 165.455 10.1386 165.455 9.62398C165.455 9.05746 165.577 8.67603 165.819 8.48192C165.992 8.32167 166.29 8.24268 166.708 8.24268V8.24493ZM181.668 2.71973C182.067 2.71973 182.365 2.79195 182.557 2.93189C182.799 3.14405 182.921 3.42843 182.921 3.78279V3.88887H188.143C188.473 3.88887 188.699 3.94981 188.821 4.07394C188.978 4.19808 189.056 4.45538 189.056 4.84359C189.056 5.14378 189.003 5.37399 188.899 5.53424C188.761 5.78252 188.507 5.90665 188.143 5.90665H182.921V6.62439H188.456C189.449 6.62439 189.961 7.01485 189.998 7.79353C189.91 8.41421 189.596 9.34411 189.059 10.5832C188.849 10.8315 188.544 10.9647 188.145 10.9805C187.78 10.9624 187.501 10.9015 187.31 10.7931C186.945 10.599 186.761 10.3056 186.761 9.91739C186.761 9.82937 186.899 9.47502 187.178 8.85433C187.194 8.81822 187.204 8.78436 187.204 8.74825H182.478V9.67815L185.115 9.5179C185.464 9.5179 185.715 9.58787 185.872 9.73006C186.064 9.89031 186.158 10.1386 186.158 10.4749C186.158 10.739 186.098 10.9534 185.976 11.1114C185.854 11.2536 185.628 11.3596 185.298 11.4296L182.478 11.6418V12.0413C182.478 12.3234 182.626 12.4656 182.921 12.4656H185.219C185.602 12.4656 185.854 12.4385 185.976 12.3866C186.186 12.3166 186.341 12.1383 186.447 11.8562C186.463 11.468 186.717 11.2445 187.204 11.1926C187.603 11.1926 187.91 11.2716 188.117 11.4319C188.413 11.5741 188.56 11.8472 188.56 12.2557C188.507 12.8041 188.274 13.2646 187.857 13.637C187.543 14.0274 186.943 14.2396 186.054 14.2735H181.954C180.632 14.2735 179.97 13.716 179.97 12.601V11.8314L178.429 11.9645C178.046 11.9465 177.776 11.8404 177.619 11.6463C177.462 11.5041 177.384 11.249 177.384 10.8766C177.384 10.6284 177.444 10.4162 177.566 10.2401C177.757 10.028 178.009 9.92191 178.323 9.92191L179.968 9.81583V8.75277H176.966C176.74 8.75277 176.627 8.90399 176.627 9.20417C176.627 12.7455 176.435 16.3409 176.052 19.9883C175.773 22.5568 175.305 24.9379 174.643 27.134C174.416 27.6306 174.033 27.8788 173.494 27.8788C173.092 27.8608 172.797 27.7637 172.605 27.5854C172.361 27.3371 172.241 27.046 172.241 26.7097C172.257 26.6217 172.294 26.4343 172.344 26.1522C173.544 21.6539 174.146 15.7924 174.146 8.56769C174.146 7.27441 174.737 6.6289 175.921 6.6289H180.411V3.7873C180.411 3.46906 180.524 3.18467 180.75 2.9364C180.907 2.79421 181.211 2.72424 181.664 2.72424L181.668 2.71973ZM177.882 14.9393H188.639C188.952 14.9393 189.188 15.0002 189.345 15.1244C189.518 15.2304 189.605 15.4787 189.605 15.8692C189.605 16.2596 189.552 16.4899 189.449 16.614C189.292 16.8262 189.022 16.9322 188.639 16.9322H184.513C185 17.659 185.408 18.3835 185.741 19.1103C185.775 19.1825 185.801 19.2434 185.819 19.2976C186.394 18.8011 186.915 18.2616 187.386 17.6771C187.473 17.589 187.543 17.5258 187.596 17.4897C187.787 17.3475 188.004 17.2776 188.249 17.2776C188.44 17.2956 188.606 17.3498 188.745 17.4378C189.059 17.5981 189.241 17.8621 189.294 18.2345C189.294 18.4467 189.25 18.6498 189.162 18.8462C189.024 19.1825 188.569 19.7152 187.806 20.4397C187.58 20.6879 187.354 20.8911 187.127 21.0513C187.737 22.1324 188.563 23.3445 189.608 24.6896C189.868 24.8838 190 25.1411 190 25.4593C190 25.7414 189.896 25.9897 189.686 26.2019C189.407 26.414 189.059 26.5201 188.641 26.5201C188.415 26.484 188.041 26.2628 187.517 25.8565C187.134 25.378 186.751 24.7844 186.368 24.078C186.264 25.1411 186.02 25.9468 185.637 26.4953C185.185 27.2559 184.28 27.6554 182.921 27.6915C182.033 27.6215 181.267 27.4342 180.623 27.134C180.187 26.9219 179.97 26.4975 179.97 25.8588C179.986 25.7866 180.014 25.7347 180.049 25.6985C179.543 25.9288 179.022 26.1229 178.482 26.2831C178.221 26.3711 177.951 26.4163 177.672 26.4163C177.377 26.4163 177.123 26.2921 176.915 26.0439C176.724 25.8137 176.629 25.5473 176.629 25.2471C176.629 24.8747 176.811 24.5926 177.178 24.3962C179.144 23.6875 180.817 22.954 182.192 22.1911C182.714 21.9248 183.244 21.5975 183.784 21.2071C183.731 20.9069 183.653 20.6135 183.549 20.3313C182.644 21.0039 181.608 21.6607 180.441 22.2972C179.882 22.6516 179.292 22.9179 178.664 23.0939C178.454 23.182 178.228 23.2271 177.986 23.2271C177.691 23.2271 177.437 23.103 177.229 22.8547C177.056 22.6245 176.968 22.3581 176.968 22.058C176.968 21.6855 177.141 21.3944 177.49 21.1822C179.179 20.5638 180.614 19.907 181.798 19.2164C182.127 19.0403 182.45 18.8439 182.764 18.6318C182.642 18.4196 182.513 18.2075 182.372 17.9953C182.284 18.0653 182.215 18.1194 182.162 18.1556C181.101 18.8981 180.134 19.4737 179.264 19.8822C178.95 20.0244 178.671 20.1034 178.429 20.1214C178.08 20.1214 177.801 20.0244 177.594 19.8303C177.453 19.6542 177.384 19.4308 177.384 19.1667C177.384 18.8304 177.515 18.555 177.776 18.3429C178.821 17.8463 179.707 17.3769 180.439 16.9345H177.88C177.601 16.9345 177.384 16.8555 177.227 16.6953C177.054 16.5531 176.966 16.28 176.966 15.8714C176.966 15.499 177.054 15.244 177.227 15.1018C177.349 14.9957 177.566 14.9415 177.88 14.9415L177.882 14.9393ZM183.809 23.5724C183.027 24.087 182.164 24.5903 181.225 25.0869C181.555 25.2291 181.834 25.3261 182.061 25.378C182.252 25.4322 182.504 25.457 182.817 25.457C183.339 25.457 183.671 24.8273 183.809 23.5702V23.5724Z" fill="#00A9E7"/>
</g>
<defs>
<clipPath id="clip0_3273_11700">
<rect width="190" height="29.7375" fill="white"/>
</clipPath>
</defs>
</svg>
